# xmcd CD database file
#
# Track frame offsets:
#	150
#	18183
#	37883
#	56157
#	73976
#	94525
#	112521
#	134421
#	153296
#	169258
#	187526
#	209383
#
# Disc length: 2999 seconds
#
# Revision: 0
# Processed by: cddbd v1.5PL3 Copyright (c) Steve Scherf et al.
# Submitted via: Feurio! 1.67 - http://www.feurio.com
#
DISCID=920bb50c
DTITLE=Vanessa Carlton - Be Not Nobody
DYEAR=1900
DGENRE=
TTITLE0=Ordinary Day
TTITLE1=Unsung
TTITLE2=A Thousand Miles
TTITLE3=Pretty Baby
TTITLE4=Rinse
TTITLE5=Sway
TTITLE6=Paradise
TTITLE7=Prince
TTITLE8=paint it black
TTITLE9=More Than Wanted
TTITLE10=Twilight
TTITLE11=vanessa carlton - even angels fall
EXTD=
EXTT0=
EXTT1=
EXTT2=
EXTT3=
EXTT4=
EXTT5=
EXTT6=
EXTT7=
EXTT8=
EXTT9=
EXTT10=
EXTT11=
PLAYORDER=
